<svg xmlns="http://www.w3.org/2000/svg" width="256" height="256"><g fill="none" fill-rule="nonzero"><path fill="#C7CFE2" d="M89.521 206.392c-4.723 0-8.551-3.796-8.551-8.477V66.535c0-21.032 17.261-38.143 38.48-38.143h8.551c4.722 0 8.551 3.795 8.551 8.476 0 4.68-3.829 8.476-8.551 8.476h-8.551c-11.787 0-21.378 9.506-21.378 21.19v131.381c0 4.681-3.829 8.477-8.551 8.477Z"/><path fill="#C7CFE2" d="M157.93 66.494h-55.583c-4.722 0-8.55-4.7-8.55-10.5s3.828-10.5 8.55-10.5h55.583v21ZM153.655 96.8H98.072a8.55 8.55 0 0 1-8.551-8.55 8.55 8.55 0 0 1 8.551-8.552h55.583v17.103Zm0 34.205H98.072a8.55 8.55 0 0 1-8.551-8.551 8.55 8.55 0 0 1 8.551-8.551h55.583v17.102Zm0 34.205H98.072a8.55 8.55 0 0 1-8.551-8.552 8.55 8.55 0 0 1 8.551-8.55h55.583v17.102Zm0 34.204H98.072a8.55 8.55 0 0 1-8.551-8.551 8.55 8.55 0 0 1 8.551-8.551h55.583v17.102Z"/><path fill="#C7CFE2" d="M157.93 206.392c-4.722 0-8.551-3.796-8.551-8.477V66.535c0-21.032 17.261-38.143 38.48-38.143h8.551c4.722 0 8.551 3.795 8.551 8.476 0 4.68-3.829 8.476-8.551 8.476h-8.551c-11.787 0-21.378 9.506-21.378 21.19v131.381c0 4.681-3.828 8.477-8.551 8.477Z"/><path fill="#000" stroke="#000" stroke-width=".5" d="M254.899 191.13c-8.992 0-13.7 2.537-17.853 4.774-3.762 2.026-7.011 3.777-13.891 3.777s-10.13-1.75-13.891-3.778c-4.153-2.237-8.861-4.773-17.853-4.773-8.987 0-13.692 2.537-17.842 4.774-3.759 2.027-7.005 3.777-13.88 3.777-6.876 0-10.124-1.75-13.884-3.777-4.152-2.237-8.857-4.774-17.847-4.774-8.986 0-13.69 2.537-17.842 4.774-3.758 2.027-7.005 3.777-13.878 3.777-6.87 0-10.116-1.75-13.874-3.776-4.15-2.239-8.853-4.775-17.838-4.775-8.985 0-13.688 2.537-17.838 4.775-3.757 2.026-7.003 3.776-13.873 3.776-6.87 0-10.116-1.75-13.874-3.776-4.15-2.239-8.853-4.775-17.838-4.775-2.265 0-4.102 1.795-4.102 4.009 0 2.214 1.837 4.008 4.103 4.008 6.87 0 10.116 1.75 13.873 3.777 4.15 2.238 8.853 4.774 17.838 4.774 8.986 0 13.689-2.536 17.838-4.774 3.758-2.027 7.003-3.777 13.873-3.777 6.871 0 10.117 1.75 13.874 3.777 4.15 2.238 8.853 4.774 17.839 4.774 8.986 0 13.69-2.536 17.842-4.774 3.758-2.027 7.004-3.777 13.878-3.777 6.876 0 10.124 1.75 13.884 3.777 4.152 2.238 8.858 4.774 17.847 4.774 8.988 0 13.692-2.536 17.843-4.774 3.758-2.026 7.005-3.777 13.879-3.777 6.88 0 10.128 1.75 13.89 3.778 4.154 2.237 8.861 4.773 17.853 4.773s13.699-2.536 17.853-4.773c3.762-2.027 7.011-3.778 13.891-3.778a4.12 4.12 0 0 0 3.553-2.004 3.93 3.93 0 0 0 0-4.009 4.121 4.121 0 0 0-3.553-2.004Zm-33.923 25.654c-6.722 0-9.897-1.751-13.572-3.778-4.059-2.237-8.659-4.773-17.445-4.773-8.78 0-13.378 2.536-17.434 4.774-3.672 2.026-6.844 3.776-13.56 3.776-6.72 0-9.893-1.75-13.567-3.776-4.057-2.238-8.655-4.774-17.439-4.774-8.78 0-13.377 2.536-17.433 4.774-3.672 2.026-6.844 3.776-13.56 3.776-6.714 0-9.885-1.75-13.557-3.776-4.055-2.238-8.65-4.774-17.43-4.774-8.779 0-13.374 2.536-17.429 4.774-3.672 2.026-6.843 3.776-13.556 3.776a4.009 4.009 0 0 0 0 8.018c8.78 0 13.375-2.537 17.43-4.775 3.671-2.026 6.842-3.776 13.555-3.776 6.714 0 9.885 1.75 13.556 3.776 4.055 2.238 8.651 4.774 17.43 4.774 8.781 0 13.378-2.536 17.434-4.774 3.672-2.026 6.844-3.776 13.56-3.776 6.72 0 9.892 1.75 13.567 3.776 4.057 2.239 8.655 4.774 17.438 4.774 8.781 0 13.379-2.536 17.435-4.774 3.672-2.026 6.844-3.776 13.56-3.776 6.723 0 9.898 1.75 13.573 3.777 4.058 2.238 8.658 4.774 17.444 4.774a4.009 4.009 0 0 0 0-8.017ZM84.978 202.262V74.888c0-22.594 15.465-40.976 34.473-40.976H128c2.505 0 4.543 2.422 4.543 5.4 0 2.977-2.038 5.4-4.543 5.4h-12.826c-2.214 0-4.008 2.133-4.008 4.765 0 2.631 1.794 4.765 4.008 4.765h40.712c1.336 0 2.584-.792 3.328-2.11 6.439-11.409 17.147-18.22 28.644-18.22h8.551c2.506 0 4.543 2.423 4.543 5.4 0 2.978-2.037 5.4-4.543 5.4h-8.55c-13.998 0-25.387 13.538-25.387 30.176v127.374c0 2.631 8.017 3.111 8.017.48V74.888c0-11.384 7.792-20.646 17.37-20.646h8.551c6.925 0 12.56-6.697 12.56-14.93 0-8.232-5.635-14.929-12.56-14.929h-8.551c-13.45 0-26.02 7.554-34.045 20.33h-14.103c.563-1.722.851-3.553.85-5.4 0-8.233-5.635-14.93-12.56-14.93h-8.552c-23.428 0-42.489 22.657-42.489 50.505v123.027c0 1.301 8.017 5.127 8.017 4.347Z"/><path fill="#000" stroke="#000" stroke-width=".5" d="M153 132.83c0-2.115-1.785-3.83-3.987-3.83H97.987c-2.202 0-3.987 1.715-3.987 3.83v16.34c0 2.115 1.785 3.83 3.987 3.83h51.026c2.202 0 3.987-1.715 3.987-3.83v-16.34ZM145 146h-43v-9h43v9Zm4.013 40c2.202 0 3.987-1.715 3.987-3.83v-16.34c0-2.115-1.785-3.83-3.987-3.83H97.987c-2.202 0-3.987 1.715-3.987 3.83v16.34c0 2.115 1.785 3.83 3.987 3.83 2.201 0 3.986-1.715 3.986-3.83v-12.51h43.054v12.51c0 2.115 1.785 3.83 3.986 3.83ZM153 99.83c0-2.115-1.785-3.83-3.987-3.83H97.987C95.785 96 94 97.715 94 99.83v16.34c0 2.115 1.785 3.83 3.987 3.83h51.026c2.202 0 3.987-1.715 3.987-3.83V99.83ZM145 113h-43v-9h43v9Zm8-46.17c0-2.115-1.785-3.83-3.987-3.83H102.24C97.696 63 94 66.55 94 70.915V83.17c0 2.115 1.785 3.83 3.987 3.83h51.026c2.202 0 3.987-1.715 3.987-3.83V66.83ZM145 80h-43v-8.736c0-.146.119-.264.265-.264H145v9Z"/></g></svg>